<?xml version="1.0" standalone="no"?>
<svg viewBox="0 0 200 200" xmlns="http://www.w3.org/2000/svg">
  <path fill="#F1C21B" d="M36.3,-48.1C46.3,-42.7,53.1,-31.1,59.9,-17.7C66.7,-4.3,73.5,10.9,69.6,22.5C65.7,34.1,51.1,42.2,37.7,52.7C24.3,63.2,12.2,76.2,-3.1,80.4C-18.3,84.6,-36.5,80,-47.9,68.8C-59.2,57.7,-63.5,39.8,-67.3,23.1C-71.1,6.3,-74.3,-9.4,-70.3,-23.2C-66.3,-37,-55.1,-48.7,-42.2,-53.2C-29.3,-57.7,-14.7,-54.9,-0.8,-53.9C13.1,-52.8,26.3,-53.6,36.3,-48.1Z" transform="translate(100 100)" />
</svg>
