<?xml version="1.0" standalone="no"?>
<svg viewBox="0 0 200 200" xmlns="http://www.w3.org/2000/svg">
  <path fill="#F1C21B" d="M32.9,-50.2C47.8,-41.7,68.6,-41.2,75.4,-32.6C82.3,-23.9,75.2,-7.1,67.5,5.9C59.7,19,51.4,28.1,43.5,38.3C35.6,48.4,28.2,59.4,19.6,58C11,56.5,1.3,42.4,-7,34.9C-15.4,27.5,-22.5,26.6,-35.6,23.9C-48.7,21.3,-67.8,16.9,-75.9,6.7C-84,-3.6,-81.1,-19.6,-74.2,-33.6C-67.4,-47.6,-56.6,-59.5,-43.6,-68.9C-30.6,-78.3,-15.3,-85.3,-3.1,-80.4C9,-75.5,18,-58.8,32.9,-50.2Z" transform="translate(100 100)" />
</svg>
